<?xml version="1.0" encoding="UTF-8"?> <svg xmlns="http://www.w3.org/2000/svg" width="760" height="760" viewBox="0 0 760 760" fill="none"><path d="M653.254 106.286V220.516C653.254 223.625 655.787 226.043 658.781 226.043C661.89 226.043 664.309 223.51 664.309 220.516V106.286C677.205 103.637 686.993 92.2373 686.993 78.5343C686.993 62.8737 674.327 50.207 658.666 50.207C643.006 50.207 630.339 62.8737 630.339 78.5343C630.454 92.2373 640.242 103.637 653.254 106.286ZM658.781 61.3767C668.224 61.3767 675.939 69.0919 675.939 78.5343C675.939 87.9767 668.224 95.6919 658.781 95.6919C649.339 95.6919 641.624 87.9767 641.624 78.5343C641.624 69.0919 649.339 61.3767 658.781 61.3767Z" fill="#196D98" stroke="#196D98" stroke-width="5"></path><path d="M305.497 132.539C308.606 132.539 311.024 130.006 311.024 127.012C311.024 123.903 308.491 121.484 305.497 121.484H279.357C276.248 121.484 273.83 124.018 273.83 127.012C273.83 130.121 276.363 132.539 279.357 132.539H305.497Z" fill="#196D98" stroke="#196D98" stroke-width="5"></path><path d="M181.594 132.539H246.769C249.879 132.539 252.297 130.006 252.297 127.012C252.297 123.903 249.763 121.484 246.769 121.484H181.594C178.485 121.484 176.066 124.018 176.066 127.012C176.066 130.006 178.6 132.539 181.594 132.539Z" fill="#196D98" stroke="#196D98" stroke-width="5"></path><path d="M478.8 177.91C478.8 174.801 476.266 172.383 473.272 172.383H181.594C178.485 172.383 176.066 174.916 176.066 177.91C176.066 181.019 178.6 183.437 181.594 183.437H473.272C476.382 183.553 478.8 181.019 478.8 177.91Z" fill="#196D98" stroke="#196D98" stroke-width="5"></path><path d="M181.709 234.449H265.77C268.879 234.449 271.297 231.916 271.297 228.922C271.297 225.928 268.763 223.395 265.77 223.395H181.709C178.6 223.395 176.182 225.928 176.182 228.922C176.182 231.916 178.6 234.449 181.709 234.449Z" fill="#196D98" stroke="#196D98" stroke-width="5"></path><path d="M351.211 223.277H308.49C305.381 223.277 302.963 225.811 302.963 228.805C302.963 231.799 305.496 234.332 308.49 234.332H351.211C354.32 234.332 356.739 231.799 356.739 228.805C356.739 225.811 354.32 223.277 351.211 223.277Z" fill="#196D98" stroke="#196D98" stroke-width="5"></path><path d="M181.709 285.574H349.715C352.824 285.574 355.242 283.041 355.242 280.047C355.242 276.938 352.709 274.52 349.715 274.52H181.709C178.6 274.52 176.182 277.053 176.182 280.047C176.066 283.041 178.6 285.574 181.709 285.574Z" fill="#196D98" stroke="#196D98" stroke-width="5"></path><path d="M678.012 220.514C678.012 223.623 680.545 226.041 683.539 226.041H709.794C718.66 226.041 725.915 233.295 725.915 242.162V554.683C725.915 561.823 721.194 568.271 714.284 570.229C711.29 571.035 709.563 574.144 710.484 577.138C711.175 579.556 713.478 581.168 715.897 581.168C716.357 581.168 716.933 581.053 717.394 580.938C728.909 577.598 737.084 566.774 737.084 554.683V242.162C737.084 227.077 724.878 214.871 709.794 214.871H683.539C680.43 214.871 678.012 217.404 678.012 220.514Z" fill="#196D98" stroke="#196D98" stroke-width="5"></path><path d="M731.673 623.086L741.115 613.644C743.303 611.456 743.303 607.886 741.115 605.698C738.927 603.51 735.357 603.51 733.169 605.698L725.339 613.528C716.357 602.935 703 596.141 688.03 596.141C660.97 596.141 638.976 618.135 638.976 645.195C638.976 672.256 660.97 694.25 688.03 694.25C715.091 694.25 737.085 672.256 737.085 645.195C736.97 637.365 735.012 629.765 731.673 623.086ZM688.03 683.195C667.188 683.195 650.145 666.153 650.145 645.31C650.145 624.468 667.188 607.425 688.03 607.425C699.891 607.425 710.485 612.953 717.509 621.474L687.454 651.529L677.091 641.395C674.903 639.207 671.333 639.207 669.145 641.395C666.957 643.583 666.957 647.153 669.145 649.341L683.309 663.504C684.345 664.541 685.727 665.116 687.224 665.116C688.721 665.116 690.103 664.541 691.139 663.504L723.036 631.607C724.763 635.868 725.685 640.589 725.685 645.425C725.8 666.268 708.873 683.195 688.03 683.195Z" fill="#196D98" stroke="#196D98" stroke-width="5"></path><path d="M391.745 509.315C383.109 481.679 357.545 462.679 328.182 462.679C317.242 462.679 306.533 465.327 296.975 470.394C283.272 451.048 261.278 439.648 237.097 439.648C196.794 439.648 163.975 472.236 163.515 512.424C142.672 519.909 128.509 539.83 128.509 562.4C128.509 574.145 132.309 585.43 139.563 594.758C149.697 608 165.012 615.485 181.594 615.485H387.945C417.194 615.485 441.03 591.648 441.03 562.4C441.03 534.418 419.497 511.503 391.745 509.315ZM429.86 562.285C429.86 585.43 411.091 604.2 387.945 604.2H181.594C168.466 604.2 156.375 598.212 148.43 587.733C142.672 580.364 139.678 571.497 139.678 562.17C139.678 543.285 152.345 526.703 170.539 521.751C173.072 521.061 174.8 518.758 174.685 516.109C174.685 515.188 174.685 514.036 174.685 513C174.685 478.57 202.666 450.588 237.097 450.588C259.091 450.588 279.012 461.758 290.412 480.527C291.218 481.794 292.485 482.715 293.982 483.061C295.479 483.406 296.975 483.176 298.242 482.37C307.109 476.612 317.472 473.618 328.182 473.618C353.86 473.618 375.969 491.006 382.072 515.879C382.648 518.412 385.412 520.139 388.06 520.139C411.091 520.37 429.86 539.139 429.86 562.285Z" fill="#196D98" stroke="#196D98" stroke-width="5"></path><path d="M237.096 463.715C231.454 463.715 225.927 464.636 220.63 466.594C217.751 467.63 216.254 470.854 217.175 473.733C217.981 476.036 220.169 477.418 222.472 477.418C223.048 477.418 223.739 477.303 224.315 477.072C228.46 475.575 232.721 474.885 237.096 474.885C240.205 474.885 242.624 472.351 242.624 469.357C242.624 466.363 240.205 463.715 237.096 463.715Z" fill="#196D98" stroke="#196D98" stroke-width="5"></path><path d="M205.2 475.459C194.031 484.901 187.582 498.604 187.582 513.228C187.582 516.337 190.115 518.756 193.109 518.756C196.103 518.756 198.637 516.222 198.637 513.228C198.637 501.943 203.588 491.35 212.224 483.98C214.527 482.022 214.873 478.453 212.915 476.15C211.073 473.731 207.503 473.386 205.2 475.459Z" fill="#196D98" stroke="#196D98" stroke-width="5"></path><path d="M51.1271 121.829V279.356C51.1271 282.465 53.6605 284.883 56.6544 284.883C59.6484 284.883 62.1817 282.35 62.1817 279.356V121.829C75.0787 119.18 84.9817 107.78 84.9817 94.0773C84.9817 78.4167 72.315 65.75 56.6544 65.75C40.9938 65.75 28.3271 78.4167 28.3271 94.0773C28.3271 107.78 38.115 119.295 51.1271 121.829ZM56.6544 76.9197C66.0968 76.9197 73.812 84.6348 73.812 94.0773C73.812 103.52 66.0968 111.235 56.6544 111.235C47.212 111.235 39.4968 103.52 39.4968 94.0773C39.4968 84.6348 47.212 76.9197 56.6544 76.9197Z" fill="#196D98" stroke="#196D98" stroke-width="5"></path><path d="M671.103 708.642H597.982C575.412 708.642 557.103 690.333 557.103 667.763V657.169H616.982C620.091 657.169 622.509 654.636 622.509 651.642C622.509 648.648 619.976 646.115 616.982 646.115H557.103V587.387L585.545 613.181C586.582 614.103 587.963 614.678 589.345 614.678C590.727 614.678 591.994 614.218 593.145 613.181L682.503 532.115V574.03C682.503 577.139 685.036 579.557 688.03 579.557C691.139 579.557 693.557 577.024 693.557 574.03V519.563V519.448C693.557 518.757 693.442 518.181 693.212 517.491C693.212 517.491 693.212 517.375 693.097 517.375C692.866 516.8 692.406 516.224 692.06 515.763C691.945 515.648 691.83 515.648 691.83 515.533C691.369 515.188 690.909 514.842 690.448 514.612C690.333 514.612 690.218 514.497 690.103 514.497C689.412 514.266 688.836 514.036 688.03 514.036H557.103V466.363H672.945C683.539 466.363 692.06 457.727 692.06 447.248V338.084V277.054C692.06 266.46 683.424 257.939 672.945 257.939H444.6C434.006 257.939 425.485 266.575 425.485 277.054V372.515V385.988H391.515V242.163C391.515 233.297 398.769 226.042 407.751 226.042H632.297C635.406 226.042 637.824 223.509 637.824 220.515C637.824 217.406 635.291 214.988 632.297 214.988H407.751C392.666 214.988 380.46 227.194 380.46 242.278V385.988H364.224C355.127 385.988 346.606 381.957 340.733 374.933L298.472 324.266C290.527 314.824 278.782 309.297 266.46 309.297H182.86H134.382V74.733C134.382 61.836 144.86 51.3572 157.757 51.3572H437.691V112.388C437.691 131.503 453.236 146.933 472.236 146.933H533.266V192.533C533.266 195.642 535.8 198.06 538.794 198.06C541.903 198.06 544.321 195.527 544.321 192.533V141.406C544.321 140.715 544.206 139.909 543.86 139.218C543.745 138.988 543.515 138.757 543.4 138.527C543.169 138.181 542.939 137.721 542.594 137.375L447.018 41.7996C446.788 41.5693 446.557 41.4542 446.327 41.339C445.982 41.1087 445.636 40.7633 445.176 40.6481C444.485 40.4178 443.794 40.1875 442.988 40.1875H157.527C138.527 40.1875 122.982 55.733 122.982 74.733V252.412C122.866 252.412 122.751 252.297 122.636 252.297C99.6058 252.297 80.8361 271.066 80.8361 294.097V309.412H59.0725C36.0422 309.412 17.2725 328.181 17.2725 351.212V678.012C17.2725 690.103 22.4543 701.042 30.7452 708.642H22.9149C19.8058 708.642 17.3876 711.175 17.3876 714.169C17.3876 717.278 19.9209 719.697 22.9149 719.697H59.0725H597.982H671.103C674.212 719.697 676.63 717.163 676.63 714.169C676.745 711.175 674.212 708.642 671.103 708.642ZM448.63 112.388V59.1875L525.206 135.763H472.121C459.109 135.878 448.63 125.284 448.63 112.388ZM589.345 601.551L557.103 572.303V525.091H673.521L589.345 601.551ZM444.6 269.109H673.06C677.436 269.109 681.006 272.678 681.006 277.054V335.781L647.266 369.521L603.624 325.878C602.588 324.842 601.206 324.266 599.709 324.266C598.212 324.266 596.83 324.842 595.794 325.878L551.806 369.866L492.618 310.909C490.43 308.721 486.86 308.721 484.672 310.909L436.539 359.042V277.054C436.539 272.678 440.109 269.109 444.6 269.109ZM436.539 374.818L488.588 322.769L547.66 381.842L571.612 405.794C572.648 406.83 574.145 407.406 575.527 407.406C576.909 407.406 578.406 406.83 579.442 405.794C581.63 403.606 581.63 400.036 579.442 397.848L559.406 377.812L599.479 337.739L643.121 381.381C644.157 382.418 645.539 382.994 647.036 382.994C648.533 382.994 649.915 382.418 650.951 381.381L680.776 351.557V447.248C680.776 451.624 677.206 455.194 672.83 455.194H557.103V427.788C557.103 404.757 538.333 385.988 515.303 385.988H436.539V374.818ZM92.0058 294.097C92.0058 277.169 105.709 263.466 122.636 263.466C122.751 263.466 122.866 263.351 122.982 263.351V309.297H92.0058V294.097ZM59.0725 708.642C42.1452 708.642 28.4422 694.939 28.4422 678.012V351.212C28.4422 334.284 42.1452 320.581 59.0725 320.581H266.23C275.327 320.581 283.963 324.612 289.721 331.521L331.982 382.188C339.927 391.745 351.672 397.157 363.994 397.157H515.188C532.115 397.157 545.818 410.86 545.818 427.788V667.763C545.818 684.345 553.648 699.084 565.739 708.642H59.0725Z" fill="#196D98" stroke="#196D98" stroke-width="5"></path><path d="M709.333 708.641H692.751C689.642 708.641 687.224 711.174 687.224 714.168C687.224 717.277 689.757 719.695 692.751 719.695H709.333C712.442 719.695 714.86 717.162 714.86 714.168C714.86 711.174 712.442 708.641 709.333 708.641Z" fill="#196D98" stroke="#196D98" stroke-width="5"></path><path d="M737.084 708.641H729.6C726.49 708.641 724.072 711.174 724.072 714.168C724.072 717.277 726.606 719.695 729.6 719.695H737.084C740.193 719.695 742.612 717.162 742.612 714.168C742.727 711.174 740.193 708.641 737.084 708.641Z" fill="#196D98" stroke="#196D98" stroke-width="5"></path></svg> 