<?xml version="1.0" encoding="UTF-8"?> <svg xmlns="http://www.w3.org/2000/svg" width="512" height="512" viewBox="0 0 512 512" fill="none"><path d="M480 152H368C363.757 152 359.687 153.686 356.686 156.686C353.686 159.687 352 163.757 352 168V231.048L245.136 177.6L232 142.544V40C232 33.6348 229.471 27.5303 224.971 23.0294C220.47 18.5286 214.365 16 208 16H64C57.6348 16 51.5303 18.5286 47.0294 23.0294C42.5286 27.5303 40 33.6348 40 40V142.544L16.504 205.192C16.1691 206.09 15.9984 207.041 16 208V232C16 236.243 17.6857 240.313 20.6863 243.314C23.6869 246.314 27.7565 248 32 248H128V264H64C57.6348 264 51.5303 266.529 47.0294 271.029C42.5286 275.53 40 281.635 40 288V390.544L16.504 453.192C16.1691 454.09 15.9984 455.041 16 456V480C16 484.243 17.6857 488.313 20.6863 491.314C23.6869 494.314 27.7565 496 32 496H240C244.243 496 248.313 494.314 251.314 491.314C254.314 488.313 256 484.243 256 480V456C256.002 455.041 255.831 454.09 255.496 453.192L232 390.544V340.944L352 280.944V344C352 348.243 353.686 352.313 356.686 355.314C359.687 358.314 363.757 360 368 360H480C484.243 360 488.313 358.314 491.314 355.314C494.314 352.313 496 348.243 496 344V168C496 163.757 494.314 159.687 491.314 156.686C488.313 153.686 484.243 152 480 152ZM181.768 200L175.592 181.472C175.061 179.878 174.042 178.492 172.68 177.51C171.317 176.528 169.68 176 168 176H104C102.32 176 100.683 176.528 99.3204 177.51C97.9577 178.492 96.9388 179.878 96.408 181.472L90.232 200H35.544L53.544 152H218.456L236.456 200H181.768ZM164.904 200H107.096L109.768 192H162.232L164.904 200ZM56 40C56 37.8783 56.8429 35.8434 58.3432 34.3431C59.8434 32.8429 61.8783 32 64 32H208C210.122 32 212.157 32.8429 213.657 34.3431C215.157 35.8434 216 37.8783 216 40V136H56V40ZM32 216H240V232H32V216ZM56 288C56 285.878 56.8429 283.843 58.3432 282.343C59.8434 280.843 61.8783 280 64 280H208C210.122 280 212.157 280.843 213.657 282.343C215.157 283.843 216 285.878 216 288V384H56V288ZM181.768 448L175.592 429.472C175.061 427.878 174.042 426.492 172.68 425.51C171.317 424.528 169.68 424 168 424H104C102.32 424 100.683 424.528 99.3204 425.51C97.9577 426.492 96.9388 427.878 96.408 429.472L90.232 448H35.544L53.544 400H218.456L236.456 448H181.768ZM164.904 448H107.096L109.768 440H162.232L164.904 448ZM32 480V464H240V480H32ZM232 323.056V288C232 281.635 229.471 275.53 224.971 271.029C220.47 266.529 214.365 264 208 264H144V248H240C244.243 248 248.313 246.314 251.314 243.314C254.314 240.313 256 236.243 256 232V208C256.002 207.041 255.831 206.09 255.496 205.192L253.4 199.592L352 248.944V263.056L232 323.056ZM368 344V168H480V344H368Z" fill="#196D98"></path><path d="M424 232C428.747 232 433.387 230.592 437.334 227.955C441.28 225.318 444.357 221.57 446.173 217.184C447.99 212.799 448.465 207.973 447.539 203.318C446.613 198.662 444.327 194.386 440.971 191.029C437.614 187.673 433.338 185.387 428.682 184.461C424.027 183.535 419.201 184.01 414.816 185.827C410.43 187.643 406.682 190.72 404.045 194.666C401.408 198.613 400 203.253 400 208C400 214.365 402.529 220.47 407.029 224.971C411.53 229.471 417.635 232 424 232ZM424 200C425.582 200 427.129 200.469 428.445 201.348C429.76 202.227 430.786 203.477 431.391 204.939C431.997 206.4 432.155 208.009 431.846 209.561C431.538 211.113 430.776 212.538 429.657 213.657C428.538 214.776 427.113 215.538 425.561 215.846C424.009 216.155 422.4 215.997 420.939 215.391C419.477 214.786 418.227 213.76 417.348 212.445C416.469 211.129 416 209.582 416 208C416 205.878 416.843 203.843 418.343 202.343C419.843 200.843 421.878 200 424 200Z" fill="#196D98"></path><path d="M392 296H456V312H392V296Z" fill="#196D98"></path><path d="M392 264H456V280H392V264Z" fill="#196D98"></path><path d="M128 72H144V88H128V72Z" fill="#196D98"></path><path d="M160 72H176V88H160V72Z" fill="#196D98"></path><path d="M96 72H112V88H96V72Z" fill="#196D98"></path><path d="M128 320H144V336H128V320Z" fill="#196D98"></path><path d="M160 320H176V336H160V320Z" fill="#196D98"></path><path d="M96 320H112V336H96V320Z" fill="#196D98"></path></svg> 