<?xml version="1.0" encoding="UTF-8"?> <svg xmlns="http://www.w3.org/2000/svg" width="512" height="512" viewBox="0 0 512 512" fill="none"><g clip-path="url(#clip0_288_200)"><path d="M174.288 495.984H140V511.984H372V495.984H337.712L324.24 400.976H512V0.015625H0V400.976H187.76L174.288 495.984ZM190.448 495.984L196.048 456.512L312.336 430.944L321.552 495.984H190.448ZM310.08 415.056L198.448 439.6L203.92 400.976H308.08L310.08 415.056ZM496 16.0156V327.648H16V16.0156H496ZM16 343.648H496V384.976H16V343.648Z" fill="#196D98"></path><path d="M147.184 259.024C192.848 259.024 229.872 222 229.872 176.336H147.184V93.6641C101.52 93.6641 64.4961 130.688 64.4961 176.352C64.4961 222.016 101.52 259.024 147.184 259.024ZM131.184 111.6V176.352V192.352H147.184H211.936C204.752 221.424 178.448 243.04 147.184 243.04C110.416 243.04 80.4961 213.12 80.4961 176.352C80.4961 145.088 102.112 118.784 131.184 111.6Z" fill="#196D98"></path><path d="M156.016 84.832V167.52H238.704C238.704 121.84 201.68 84.832 156.016 84.832ZM172.016 102.768C195.952 108.688 214.848 127.568 220.768 151.52H172.016V102.768Z" fill="#196D98"></path><path d="M355.984 259.024C401.648 259.024 438.672 222 438.672 176.336H355.984V93.6641C310.32 93.6641 273.296 130.688 273.296 176.352C273.296 222.016 310.32 259.024 355.984 259.024ZM339.984 111.6V176.352V192.352H355.984H420.736C413.552 221.424 387.248 243.04 355.984 243.04C319.216 243.04 289.296 213.12 289.296 176.352C289.296 145.088 310.912 118.784 339.984 111.6Z" fill="#196D98"></path><path d="M364.816 84.832V167.52H447.504C447.504 121.84 410.48 84.832 364.816 84.832ZM380.816 102.768C404.752 108.688 423.648 127.568 429.568 151.52H380.816V102.768Z" fill="#196D98"></path></g><defs><clipPath id="clip0_288_200"><rect width="512" height="512" fill="white"></rect></clipPath></defs></svg> 