<?xml version="1.0" encoding="UTF-8"?> <svg xmlns="http://www.w3.org/2000/svg" width="512" height="512" viewBox="0 0 512 512" fill="none"><path d="M499.7 82.1008C491.3 65.3008 474.1 53.8008 454.1 53.8008H57.9C29.8 53.8008 7 76.6008 7 104.601V407.401C7 435.401 29.8 458.201 57.8 458.201H171.2H454.1C482.1 458.201 504.9 435.401 504.9 407.401V104.601C505 96.5008 503.1 88.9008 499.7 82.1008ZM262.8 347.601V145.101L394.9 114.701L491.4 252.001V400.301L262.8 347.601ZM176.3 444.601L144.3 334.301L249.1 358.501V444.601H176.3ZM140 319.301L100.3 182.501L249.2 148.201V344.501L140 319.301ZM20.6 200.901L87 185.601L124.8 315.901L20.6 291.901V200.901ZM96.5 169.401L66.9 67.4008H249.2V134.201L96.5 169.401ZM409.3 111.301L489.5 92.8008C490.7 96.5008 491.4 100.501 491.4 104.601V228.201L409.3 111.301ZM482.5 80.5008L262.9 131.101V67.4008H454.2C465.5 67.4008 475.6 72.5008 482.5 80.5008ZM52.8 67.8008L83.2 172.501L20.6 186.901V104.601C20.6 85.8008 34.7 70.2008 52.8 67.8008ZM20.6 407.401V305.801L129.1 330.801L162.1 444.601H57.9C37.3 444.601 20.6 427.901 20.6 407.401ZM454.1 444.601H262.8V361.601L490.7 414.101C487.6 431.401 472.4 444.601 454.1 444.601ZM414.6 184.001C404.1 168.801 387.1 160.401 366.9 160.401C347.5 160.401 330.3 168.901 319.5 183.801C308.5 199.101 305.8 218.801 312.2 237.901C319.8 260.701 336.4 287.101 349.7 308.301C354.2 315.401 358.1 321.601 361 326.601C362.2 328.701 364.5 330.001 366.9 330.001C369.3 330.001 371.6 328.701 372.8 326.601C375.7 321.601 379.6 315.401 384 308.301C396.4 288.601 411.7 264.201 419.9 242.501C427.7 222.001 425.7 200.101 414.6 184.001ZM407.2 237.701C399.5 258.101 384.5 281.901 372.5 301.101C370.5 304.301 368.6 307.301 366.9 310.001C365.2 307.201 363.3 304.201 361.3 301.001C349 281.501 332.2 254.801 325.1 233.601C320.1 218.701 322.1 203.501 330.6 191.801C338.7 180.501 352 174.101 366.9 174.101C382.5 174.101 395.5 180.401 403.4 191.801C412 204.201 413.4 221.401 407.2 237.701ZM366.8 189.501C350.3 189.501 336.8 202.901 336.8 219.401C336.8 235.901 350.2 249.401 366.8 249.401C383.3 249.401 396.7 236.001 396.7 219.401C396.7 202.901 383.3 189.501 366.8 189.501ZM366.8 235.801C357.8 235.801 350.5 228.501 350.5 219.501C350.5 210.501 357.8 203.201 366.8 203.201C375.8 203.201 383.1 210.501 383.1 219.501C383.1 228.401 375.8 235.801 366.8 235.801Z" fill="#196D98"></path></svg> 