<?xml version="1.0" encoding="UTF-8"?> <svg xmlns="http://www.w3.org/2000/svg" width="512" height="512" viewBox="0 0 512 512" fill="none"><g clip-path="url(#clip0_288_146)"><path d="M99.9002 319.864C90.6592 319.864 9.61816 320.631 9.61816 347.164V484.7C9.61316 511.23 90.6542 512 99.9002 512C109.146 512 190.213 511.233 190.213 484.7V347.162C190.208 320.631 109.139 319.864 99.9002 319.864ZM46.2002 338.81C60.9632 335.623 80.0342 333.868 99.9002 333.868C119.766 333.868 138.858 335.623 153.625 338.81C168.036 341.919 174.02 345.446 175.799 347.167C174.027 348.891 168.053 352.422 153.64 355.537C138.876 358.728 119.791 360.484 99.9002 360.484C80.0092 360.484 60.9452 358.728 46.1852 355.537C31.7752 352.422 25.8022 348.89 24.0312 347.167C25.8052 345.445 31.7882 341.919 46.2002 338.81ZM176.2 484.245C175.124 485.719 169.472 489.645 153.629 493.059C138.871 496.241 119.786 497.993 99.8912 497.993C79.9962 497.993 60.9332 496.241 46.1792 493.059C30.3392 489.643 24.6882 485.719 23.6122 484.245V454.885C47.2302 465.742 93.0812 466.161 99.9002 466.161C106.719 466.161 152.588 465.742 176.209 454.883L176.2 484.245ZM176.2 438.397C175.124 439.869 169.472 443.797 153.616 447.216C138.849 450.402 119.769 452.157 99.8912 452.157C80.0132 452.157 60.9542 450.402 46.1912 447.216C30.3392 443.793 24.6912 439.869 23.6122 438.398V409.048C47.2302 419.905 93.0812 420.324 99.9002 420.324C106.719 420.324 152.588 419.905 176.209 409.046L176.2 438.397ZM176.2 392.562C175.121 394.035 169.466 397.962 153.616 401.379C138.849 404.565 119.769 406.32 99.8912 406.32C80.0132 406.32 60.9542 404.565 46.1912 401.379C30.3392 397.958 24.6912 394.033 23.6122 392.561V363.2C47.2302 374.069 93.0812 374.488 99.9002 374.488C106.719 374.488 152.588 374.069 176.209 363.199L176.2 392.562ZM150.036 383.644C150.036 381.787 150.774 380.007 152.086 378.694C153.399 377.381 155.18 376.644 157.036 376.644H158.2C160.057 376.644 161.837 377.381 163.15 378.694C164.463 380.007 165.2 381.787 165.2 383.644C165.2 385.501 164.463 387.281 163.15 388.594C161.837 389.907 160.057 390.644 158.2 390.644H157.038C155.182 390.643 153.402 389.906 152.09 388.593C150.777 387.28 150.04 385.5 150.04 383.644H150.036ZM150.036 429.679C150.036 427.822 150.774 426.042 152.086 424.729C153.399 423.416 155.18 422.679 157.036 422.679H158.2C160.057 422.679 161.837 423.416 163.15 424.729C164.463 426.042 165.2 427.822 165.2 429.679C165.2 431.536 164.463 433.316 163.15 434.629C161.837 435.942 160.057 436.679 158.2 436.679H157.038C155.182 436.678 153.402 435.941 152.09 434.628C150.777 433.315 150.04 431.535 150.04 429.679H150.036ZM150.036 475.713C150.036 473.856 150.774 472.076 152.086 470.763C153.399 469.45 155.18 468.713 157.036 468.713H158.2C160.057 468.713 161.837 469.45 163.15 470.763C164.463 472.076 165.2 473.856 165.2 475.713C165.2 477.57 164.463 479.35 163.15 480.663C161.837 481.976 160.057 482.713 158.2 482.713H157.038C155.182 482.712 153.402 481.975 152.09 480.662C150.777 479.349 150.04 477.569 150.04 475.713H150.036ZM405.385 258.834H374.034C372.178 258.834 370.397 259.571 369.084 260.884C367.772 262.197 367.034 263.977 367.034 265.834C367.076 292.502 359.054 318.559 344.02 340.585C328.986 362.611 307.644 379.577 282.794 389.255L274.387 357.877C274.03 356.539 273.283 355.336 272.242 354.422C271.2 353.509 269.911 352.924 268.538 352.744C267.164 352.563 265.768 352.794 264.525 353.407C263.283 354.02 262.251 354.989 261.559 356.189L223.688 421.811C223.228 422.607 222.93 423.486 222.81 424.398C222.69 425.31 222.751 426.236 222.989 427.124C223.227 428.012 223.638 428.845 224.198 429.574C224.758 430.304 225.456 430.916 226.252 431.375L291.846 469.245C293.045 469.938 294.423 470.26 295.805 470.17C297.186 470.079 298.51 469.581 299.609 468.739C300.708 467.896 301.532 466.746 301.977 465.435C302.422 464.123 302.469 462.71 302.11 461.372L294.595 433.272C329.079 420.886 358.898 398.157 379.981 368.19C401.063 338.222 412.381 302.477 412.387 265.836C412.387 264.916 412.206 264.006 411.855 263.156C411.503 262.306 410.987 261.534 410.337 260.884C409.687 260.234 408.915 259.718 408.065 259.366C407.215 259.015 406.305 258.834 405.385 258.834ZM284.018 422.068C282.3 422.612 280.857 423.797 279.991 425.378C279.125 426.958 278.902 428.812 279.368 430.553L284.216 448.674L239.316 422.75L265.237 377.835L271.237 400.225C271.483 401.144 271.915 402.004 272.504 402.751C273.094 403.498 273.83 404.117 274.667 404.57C275.504 405.023 276.425 405.301 277.373 405.386C278.321 405.471 279.277 405.362 280.181 405.065C308.406 395.856 333.157 378.272 351.144 354.652C369.13 331.032 379.499 302.495 380.871 272.838H398.238C396.902 306.452 385.211 338.831 364.765 365.544C344.319 392.258 316.116 412 284.018 422.068ZM63.6692 272.838H95.0202C96.8767 272.838 98.6572 272.101 99.9699 270.788C101.283 269.475 102.02 267.695 102.02 265.838C101.929 232.866 114.172 201.051 136.343 176.646C158.514 152.241 189.011 137.009 221.84 133.944V162.06C221.839 163.445 222.25 164.799 223.019 165.951C223.788 167.102 224.881 168 226.161 168.53C227.44 169.06 228.848 169.199 230.206 168.929C231.565 168.659 232.812 167.992 233.791 167.012L287.366 113.465C288.016 112.815 288.532 112.043 288.884 111.194C289.236 110.345 289.417 109.434 289.417 108.515C289.417 107.596 289.236 106.685 288.884 105.836C288.532 104.987 288.016 104.215 287.366 103.565L233.8 49.987C232.821 49.0068 231.574 48.3391 230.215 48.0684C228.857 47.7977 227.448 47.9362 226.168 48.4663C224.889 48.9964 223.795 49.8943 223.026 51.0464C222.256 52.1984 221.846 53.5528 221.847 54.938V88.455C176.989 91.6584 135.009 111.737 104.361 144.65C73.7126 177.562 56.671 220.863 56.6672 265.836C56.6669 266.756 56.8478 267.666 57.1996 268.516C57.5514 269.366 58.0672 270.138 58.7174 270.788C59.3677 271.438 60.1397 271.954 60.9893 272.306C61.8389 272.657 62.7496 272.838 63.6692 272.838ZM229.071 102.1C230.888 102.041 232.611 101.278 233.875 99.9715C235.14 98.6651 235.846 96.918 235.845 95.1V71.842L272.515 108.512L235.845 145.163V126.456C235.846 125.512 235.656 124.578 235.287 123.71C234.917 122.842 234.376 122.057 233.696 121.403C233.015 120.749 232.21 120.24 231.327 119.905C230.445 119.57 229.504 119.418 228.561 119.456C191.98 120.949 157.282 136.084 131.301 161.88C105.32 187.676 89.938 222.264 88.1832 258.834H70.8142C72.393 217.508 89.6187 178.327 119.003 149.226C148.387 120.125 187.732 103.279 229.071 102.1ZM245.313 336.613C246.902 336.613 248.444 336.073 249.685 335.081C250.926 334.089 251.792 332.704 252.142 331.154L255.299 317.188C255.585 317.072 255.87 316.953 256.155 316.832L268.246 324.475C269.59 325.325 271.182 325.692 272.762 325.516C274.341 325.34 275.814 324.632 276.938 323.508L292.188 308.257C293.311 307.134 294.019 305.663 294.196 304.085C294.373 302.507 294.007 300.915 293.16 299.572L285.525 287.459C285.647 287.168 285.767 286.877 285.885 286.585L299.836 283.433C301.386 283.083 302.771 282.216 303.763 280.975C304.755 279.734 305.296 278.192 305.295 276.603V255.064C305.295 253.475 304.755 251.934 303.763 250.692C302.771 249.451 301.386 248.585 299.836 248.235L285.879 245.081C285.761 244.791 285.642 244.502 285.521 244.215L293.16 232.1C294.008 230.756 294.373 229.163 294.195 227.584C294.018 226.005 293.308 224.533 292.183 223.411L276.933 208.189C275.81 207.068 274.34 206.362 272.763 206.186C271.186 206.01 269.596 206.375 268.254 207.221L256.161 214.843C255.874 214.72 255.586 214.601 255.297 214.483L252.142 200.543C251.792 198.994 250.925 197.61 249.684 196.618C248.443 195.627 246.902 195.087 245.313 195.087H223.741C222.153 195.087 220.611 195.627 219.37 196.618C218.129 197.61 217.262 198.995 216.912 200.544L213.76 214.477C213.463 214.597 213.168 214.719 212.874 214.844L200.805 207.224C199.463 206.376 197.872 206.01 196.294 206.185C194.716 206.361 193.245 207.067 192.121 208.189L176.871 223.411C175.746 224.533 175.037 226.005 174.859 227.584C174.682 229.163 175.047 230.756 175.894 232.1L183.52 244.2C183.396 244.497 183.273 244.795 183.153 245.092L169.219 248.241C167.669 248.591 166.285 249.457 165.292 250.698C164.3 251.94 163.76 253.481 163.76 255.07V276.613C163.76 278.202 164.3 279.744 165.292 280.985C166.284 282.226 167.669 283.093 169.219 283.443L183.145 286.59C183.266 286.89 183.39 287.19 183.516 287.49L175.894 299.584C175.047 300.927 174.682 302.519 174.858 304.097C175.035 305.675 175.743 307.146 176.866 308.269L192.116 323.52C193.24 324.644 194.713 325.352 196.293 325.528C197.872 325.704 199.465 325.337 200.808 324.487L212.894 316.847C213.18 316.969 213.468 317.089 213.758 317.206L216.912 331.166C217.262 332.716 218.129 334.101 219.37 335.093C220.611 336.085 222.152 336.625 223.741 336.625L245.313 336.613ZM215.655 302.661C214.567 302.09 213.348 301.816 212.121 301.866C210.893 301.915 209.7 302.287 208.662 302.944L198.062 309.644L190.724 302.306L197.409 291.706C198.06 290.673 198.43 289.488 198.482 288.268C198.533 287.048 198.265 285.836 197.703 284.752C196.665 282.764 195.809 280.685 195.144 278.543C194.782 277.365 194.115 276.304 193.211 275.466C192.307 274.629 191.198 274.045 189.996 273.773L177.766 271.01V260.66L189.996 257.896C191.195 257.625 192.301 257.044 193.203 256.211C194.106 255.377 194.773 254.321 195.138 253.148C195.809 251 196.668 248.916 197.703 246.918C198.265 245.834 198.533 244.622 198.482 243.402C198.43 242.182 198.06 240.997 197.409 239.964L190.727 229.364L198.059 222.046L208.639 228.727C209.672 229.38 210.858 229.751 212.079 229.804C213.3 229.857 214.513 229.589 215.598 229.027C217.621 227.984 219.726 227.11 221.893 226.415C223.052 226.042 224.093 225.374 224.914 224.476C225.736 223.578 226.309 222.482 226.577 221.295L229.339 209.095H239.722L242.484 221.295C242.753 222.482 243.326 223.578 244.147 224.476C244.969 225.373 246.01 226.041 247.168 226.414C249.325 227.11 251.421 227.984 253.433 229.026C254.517 229.588 255.73 229.857 256.95 229.805C258.17 229.754 259.355 229.384 260.388 228.733L270.997 222.046L278.333 229.367L271.651 239.967C271.006 240.99 270.637 242.163 270.58 243.371C270.524 244.58 270.781 245.782 271.327 246.861C272.363 248.909 273.238 251.035 273.943 253.219C274.316 254.377 274.985 255.417 275.883 256.238C276.781 257.059 277.877 257.631 279.064 257.899L291.294 260.663V271.015L279.064 273.778C277.874 274.047 276.775 274.622 275.875 275.446C274.976 276.27 274.307 277.316 273.936 278.478C273.238 280.656 272.366 282.775 271.327 284.813C270.78 285.893 270.522 287.096 270.579 288.306C270.636 289.515 271.005 290.689 271.651 291.713L278.336 302.313L271 309.65L260.4 302.95C259.367 302.296 258.181 301.925 256.959 301.872C255.738 301.819 254.524 302.088 253.438 302.65C251.425 303.693 249.328 304.568 247.17 305.265C246.012 305.638 244.971 306.307 244.151 307.205C243.33 308.103 242.757 309.199 242.489 310.386L239.726 322.614H229.346L226.582 310.386C226.314 309.199 225.741 308.103 224.92 307.205C224.099 306.307 223.058 305.638 221.9 305.265C219.748 304.578 217.659 303.708 215.655 302.665V302.661ZM266.655 265.832C266.652 259.478 264.766 253.268 261.234 247.986C257.703 242.704 252.684 238.588 246.814 236.158C240.943 233.728 234.484 233.093 228.252 234.333C222.021 235.573 216.297 238.633 211.804 243.126C207.311 247.619 204.251 253.343 203.011 259.574C201.771 265.806 202.406 272.265 204.836 278.136C207.267 284.006 211.383 289.024 216.664 292.556C221.946 296.088 228.156 297.974 234.51 297.977C243.034 297.972 251.206 294.584 257.234 288.558C263.261 282.531 266.651 274.359 266.658 265.836L266.655 265.832ZM216.397 265.832C216.4 262.247 217.466 258.743 219.46 255.764C221.455 252.785 224.288 250.463 227.601 249.094C230.914 247.725 234.559 247.369 238.075 248.071C241.591 248.773 244.819 250.502 247.352 253.04C249.885 255.577 251.609 258.808 252.306 262.325C253.002 265.842 252.64 269.486 251.266 272.797C249.891 276.108 247.566 278.937 244.583 280.927C241.601 282.916 238.095 283.977 234.51 283.974C229.704 283.968 225.097 282.054 221.701 278.653C218.306 275.252 216.399 270.642 216.4 265.836L216.397 265.832ZM500.338 62.887L439.538 2.056C438.888 1.40433 438.116 0.88729 437.265 0.534492C436.415 0.181695 435.504 6.42125e-05 434.583 0L315.527 0C313.671 0 311.89 0.737498 310.577 2.05025C309.265 3.36301 308.527 5.14348 308.527 7V215.294C308.527 217.151 309.265 218.931 310.577 220.244C311.89 221.556 313.671 222.294 315.527 222.294H495.385C497.242 222.294 499.022 221.556 500.335 220.244C501.648 218.931 502.385 217.151 502.385 215.294V67.836C502.386 65.9802 501.65 64.2001 500.338 62.887ZM441.585 23.915L478.485 60.834H441.585V23.915ZM488.385 208.292H322.529V14.007H427.581V67.836C427.581 69.6925 428.319 71.473 429.631 72.7857C430.944 74.0985 432.725 74.836 434.581 74.836H488.381L488.385 208.292ZM354.165 110.525H456.749C458.606 110.525 460.386 111.262 461.699 112.575C463.012 113.888 463.749 115.668 463.749 117.525C463.749 119.382 463.012 121.162 461.699 122.475C460.386 123.788 458.606 124.525 456.749 124.525H354.164C352.308 124.525 350.527 123.788 349.214 122.475C347.902 121.162 347.164 119.382 347.164 117.525C347.164 115.668 347.902 113.888 349.214 112.575C350.527 111.262 352.308 110.525 354.164 110.525H354.165ZM463.752 148.736C463.752 150.593 463.015 152.373 461.702 153.686C460.389 154.998 458.609 155.736 456.752 155.736H354.164C352.308 155.736 350.527 154.998 349.214 153.686C347.902 152.373 347.164 150.593 347.164 148.736C347.164 146.879 347.902 145.099 349.214 143.786C350.527 142.474 352.308 141.736 354.164 141.736H456.749C457.669 141.736 458.579 141.917 459.429 142.268C460.278 142.62 461.05 143.136 461.7 143.786C462.35 144.436 462.866 145.207 463.218 146.057C463.57 146.906 463.751 147.817 463.751 148.736H463.752ZM412.473 179.946C412.473 181.803 411.736 183.583 410.423 184.896C409.11 186.209 407.33 186.946 405.473 186.946H354.164C352.308 186.946 350.527 186.209 349.214 184.896C347.902 183.583 347.164 181.803 347.164 179.946C347.164 178.089 347.902 176.309 349.214 174.996C350.527 173.683 352.308 172.946 354.164 172.946H405.47C406.39 172.946 407.3 173.127 408.15 173.478C408.999 173.83 409.771 174.346 410.421 174.996C411.071 175.646 411.587 176.417 411.939 177.267C412.291 178.116 412.472 179.027 412.472 179.946H412.473ZM347.163 86.318C347.163 84.4615 347.901 82.681 349.213 81.3683C350.526 80.0555 352.307 79.318 354.163 79.318H405.47C407.327 79.318 409.107 80.0555 410.42 81.3683C411.733 82.681 412.47 84.4615 412.47 86.318C412.47 88.1745 411.733 89.955 410.42 91.2677C409.107 92.5805 407.327 93.318 405.47 93.318H354.164C353.245 93.3183 352.334 93.1374 351.485 92.7857C350.635 92.4341 349.863 91.9185 349.213 91.2685C348.563 90.6184 348.047 89.8467 347.695 88.9972C347.343 88.1478 347.162 87.2374 347.162 86.318H347.163Z" fill="#196D98"></path></g><defs><clipPath id="clip0_288_146"><rect width="512" height="512" fill="white"></rect></clipPath></defs></svg> 