<?xml version="1.0" encoding="UTF-8"?> <svg xmlns="http://www.w3.org/2000/svg" width="512" height="512" viewBox="0 0 512 512" fill="none"><path d="M374.691 293.236C373.139 293.236 370.812 292.46 369.261 290.909C366.158 287.806 287.03 211.006 287.03 143.515C287.03 96.9692 325.818 58.957 373.915 58.957C422.012 58.957 461.576 96.9692 461.576 143.515C461.576 211.006 383.224 287.806 380.121 290.909C378.57 292.46 377.018 293.236 374.691 293.236ZM373.915 74.4722C334.351 74.4722 302.545 105.502 302.545 143.515C302.545 194.715 356.848 255.999 374.691 274.618C392.533 255.999 446.061 195.49 446.061 143.515C446.061 105.502 413.479 74.4722 373.915 74.4722Z" fill="#196D98"></path><path d="M374.691 193.164H373.915C360.727 193.164 349.091 187.733 340.557 178.424C332.024 169.115 326.594 156.703 327.369 144.291C327.369 131.103 332.8 119.467 342.109 110.933C351.418 102.4 363.83 96.9696 376.242 97.7454C389.43 97.7454 401.066 103.176 409.6 112.485C418.133 121.794 423.563 134.206 422.788 146.618C422.788 159.806 417.357 171.442 408.048 179.976C398.739 188.509 387.103 193.164 374.691 193.164ZM374.691 112.485C366.157 112.485 358.4 115.588 352.194 121.794C345.988 128 342.109 135.757 342.109 144.291C342.109 152.824 345.212 161.357 351.418 167.564C357.624 173.77 365.382 177.648 373.915 177.648C382.448 177.648 390.982 174.545 397.188 168.339C403.394 162.133 407.272 154.376 407.272 145.842C407.272 137.309 404.169 128.776 397.963 122.57C392.533 115.588 384 112.485 374.691 112.485Z" fill="#196D98"></path><path d="M374.691 322.714C337.454 322.714 297.891 311.853 297.891 287.805C297.891 269.187 325.818 258.326 352.969 254.447C355.297 254.447 358.4 255.223 359.951 256.774C366.157 263.756 372.363 269.962 376.242 273.841C380.121 269.962 385.551 263.756 392.533 256.774C394.085 254.447 397.188 253.671 399.515 254.447C425.115 258.326 453.042 269.187 453.042 287.805C451.491 310.302 411.927 322.714 374.691 322.714ZM350.642 270.738C324.266 275.393 313.406 283.926 313.406 287.805C313.406 295.562 337.454 307.199 374.691 307.199C412.703 307.199 435.975 294.787 435.975 287.805C435.975 283.15 423.563 274.617 400.291 270.738C389.43 283.15 381.672 290.908 380.897 290.908C377.794 294.011 373.139 294.011 370.036 290.908C369.26 290.908 361.503 282.374 350.642 270.738Z" fill="#196D98"></path><path d="M122.57 402.618C121.795 402.618 121.019 402.618 121.019 402.618C110.934 400.291 100.849 395.636 92.3158 390.982C89.2128 389.43 87.6613 385.551 89.2128 381.673C91.54 375.467 90.7643 370.036 88.437 366.933C86.1097 364.606 80.6794 363.83 75.2491 366.933C72.1461 368.485 67.4916 367.709 65.94 364.606C58.9582 355.297 55.8552 344.436 53.5279 335.903C52.7522 332.024 54.3037 328.145 58.1825 326.594C63.6128 324.267 67.4916 319.612 67.4916 315.733C67.4916 310.303 61.2855 306.424 58.1825 304.873C55.0794 303.321 53.5279 300.218 53.5279 297.115C54.3037 285.479 58.1825 276.17 64.3885 266.86C65.1643 263.757 69.0431 262.206 72.1461 263.757C78.3522 266.085 84.5582 266.085 86.1097 263.757C89.2128 260.654 89.9885 255.224 86.8855 249.794C85.334 246.691 86.1097 242.036 89.2128 240.485C98.5219 233.503 109.382 230.4 117.916 228.073C121.019 227.297 124.898 228.848 126.449 231.951C128.776 236.606 133.431 241.26 138.085 241.26C143.516 241.26 147.395 235.054 148.946 231.951C150.498 228.848 154.376 226.521 158.255 227.297C168.34 229.624 178.425 234.279 186.958 238.933C190.061 240.485 191.613 244.364 190.061 248.242C189.286 251.345 186.958 259.103 190.837 262.982C193.94 266.085 199.37 266.085 204.801 263.757C207.904 262.206 212.558 262.982 214.11 266.085C221.092 275.394 224.195 286.254 226.522 294.788C227.298 298.667 225.746 302.545 221.867 304.097C217.989 305.648 212.558 309.527 212.558 314.957C213.334 318.836 217.213 323.491 222.643 326.594C225.746 328.145 228.073 332.024 227.298 335.903C224.97 345.988 220.316 356.073 215.661 364.606C214.11 367.709 210.231 369.26 206.352 367.709C200.146 365.382 193.94 365.382 192.389 367.709C189.285 370.812 188.51 376.242 191.613 381.673C193.164 384.776 192.389 389.43 189.286 390.982C179.976 397.964 169.116 401.067 160.582 403.394C156.704 404.17 152.825 402.618 151.273 398.739C148.946 393.309 144.292 389.43 140.413 389.43C134.982 389.43 131.104 395.636 129.552 398.739C128.001 401.067 125.673 402.618 122.57 402.618ZM140.413 373.139C148.946 373.139 156.704 377.794 162.134 385.551C166.789 384 171.443 382.448 175.322 380.121C172.995 370.812 175.322 361.503 181.528 355.297C186.182 349.867 195.492 347.539 205.576 349.091C207.904 344.436 209.455 340.557 211.007 335.903C203.249 330.473 198.595 322.715 197.819 314.182C197.819 304.873 202.473 297.115 210.231 291.685C208.679 287.03 207.128 282.376 204.801 278.497C195.492 280.824 186.182 278.497 179.976 272.291C173.77 266.085 172.219 257.551 173.77 248.242C169.116 245.915 165.237 244.364 160.582 242.812C155.152 250.57 147.395 255.224 138.861 255.224C132.655 255.224 124.898 252.897 117.14 242.812C112.486 244.364 107.831 245.915 103.176 248.242C105.504 257.551 103.176 266.86 96.9703 273.067C92.3158 279.273 83.0067 280.824 72.1461 279.273C69.8188 283.151 68.2673 287.806 67.4916 292.46C76.0249 297.891 80.6794 305.648 80.6794 314.957C80.6794 323.491 76.0249 331.248 68.2673 336.679C69.8188 341.333 71.3703 345.988 73.6976 349.867C83.0067 347.539 92.3158 349.867 98.5219 356.073C103.952 362.279 106.279 370.812 104.728 380.121C109.382 382.448 113.261 384 117.916 385.551C124.122 377.794 131.879 373.139 140.413 373.139Z" fill="#196D98"></path><path d="M139.637 352.193C119.467 352.193 102.4 335.127 102.4 314.957C102.4 294.787 119.467 277.721 139.637 277.721C159.806 277.721 176.873 294.787 176.873 314.957C176.873 335.127 159.806 352.193 139.637 352.193ZM139.637 293.236C128 293.236 117.916 303.321 117.916 314.957C117.916 326.593 128 336.678 139.637 336.678C151.273 336.678 161.358 326.593 161.358 314.957C161.358 303.321 151.273 293.236 139.637 293.236Z" fill="#196D98"></path><path d="M95.4184 197.041H58.9578C54.3032 197.041 51.2002 193.938 51.2002 189.284V105.502C51.2002 100.847 54.3032 97.7441 58.9578 97.7441H95.4184C100.073 97.7441 103.176 100.847 103.176 105.502V189.284C103.176 193.938 100.073 197.041 95.4184 197.041ZM66.7154 181.526H87.6608V113.259H66.7154V181.526Z" fill="#196D98"></path><path d="M168.339 197.817H131.879C127.224 197.817 124.121 194.714 124.121 190.06V88.4353C124.121 83.7808 127.224 80.6777 131.879 80.6777H168.339C172.994 80.6777 176.097 83.7808 176.097 88.4353V190.06C176.097 194.714 172.994 197.817 168.339 197.817ZM139.636 182.302H160.582V96.1929H139.636V182.302Z" fill="#196D98"></path><path d="M240.485 197.042H204.024C199.37 197.042 196.267 193.939 196.267 189.284V70.5935C196.267 65.939 199.37 62.8359 204.024 62.8359H240.485C245.139 62.8359 248.242 65.939 248.242 70.5935V189.284C248.242 193.939 245.139 197.042 240.485 197.042ZM211.782 181.527H232.727V78.3511H211.782V181.527Z" fill="#196D98"></path><path d="M222.643 446.837H58.9578C54.3032 446.837 51.2002 443.734 51.2002 439.079C51.2002 434.424 54.3032 431.321 58.9578 431.321H218.764L249.794 390.982C252.121 387.879 256 387.103 259.103 388.655L310.303 408.824L440.631 337.455C444.509 335.128 449.164 336.679 451.491 340.558C453.818 344.437 452.267 349.091 448.388 351.418L314.958 424.34C312.631 425.115 310.303 425.891 307.976 425.115L259.103 405.721L229.624 444.509C227.297 446.061 224.97 446.837 222.643 446.837Z" fill="#196D98"></path></svg> 