<?xml version="1.0" encoding="UTF-8"?> <svg xmlns="http://www.w3.org/2000/svg" width="487" height="488" viewBox="0 0 487 488" fill="none"><path d="M298.161 98.4596H309.808C312.608 98.4596 314.881 96.1823 314.881 93.3763C314.881 90.5703 312.608 88.293 309.808 88.293H298.161C295.361 88.293 293.088 90.5703 293.088 93.3763C293.088 96.1823 295.361 98.4596 298.161 98.4596Z" fill="#196D98" stroke="#196D98" stroke-width="2"></path><path d="M44.6419 414.891H170.425V472.734H131.784C128.984 472.734 126.712 475.012 126.712 477.818C126.712 480.624 128.984 482.901 131.784 482.901H175.498H311.533H355.246C358.047 482.901 360.319 480.624 360.319 477.818C360.319 475.012 358.047 472.734 355.246 472.734H316.606V414.891H442.389C461.123 414.891 476.367 399.621 476.367 380.843V363.554V122.482C476.367 103.628 461.128 88.292 442.389 88.292H333.824C331.023 88.292 328.751 90.5693 328.751 93.3753C328.751 96.1813 331.023 98.4586 333.824 98.4586H442.394C455.533 98.4586 466.227 109.235 466.227 122.482V358.471H20.6673V122.482C20.6673 109.235 31.4219 98.4586 44.6419 98.4586H60.1295V285.744C60.1295 294.823 67.4345 302.209 76.4187 302.209H265.943C275.003 302.209 282.374 294.823 282.374 285.744V227.855H313.212V287.182C313.212 293.242 318.194 298.173 324.322 298.173H337.547C339.657 304.435 345.466 308.98 352.36 308.98C361.025 308.98 368.076 301.853 368.076 293.089C368.076 284.407 361.025 277.346 352.36 277.346C345.481 277.346 339.683 281.825 337.562 288.006H324.322C323.845 288.006 323.358 287.696 323.358 287.182V227.855H370.496C372.616 234.036 378.414 238.52 385.293 238.52C393.958 238.52 401.004 231.454 401.004 222.772C401.004 214.089 393.958 207.023 385.293 207.023C378.414 207.023 372.616 211.507 370.496 217.688H323.358V156.2C323.358 155.692 323.82 155.234 324.322 155.234H337.562C339.683 161.416 345.486 165.899 352.36 165.899C361.025 165.899 368.076 158.833 368.076 150.151C368.076 141.469 361.025 134.403 352.36 134.403C345.481 134.403 339.683 138.886 337.562 145.068H324.322C318.194 145.068 313.212 150.06 313.212 156.2V217.688H282.374V93.3753C282.374 93.2635 282.318 93.1567 282.308 93.0449C282.283 92.6179 282.202 92.2011 282.065 91.7944C282.024 91.6775 282.029 91.5504 281.978 91.4335C281.948 91.3623 281.897 91.3115 281.867 91.2403C281.623 90.7116 281.314 90.2135 280.888 89.7865C280.888 89.7865 280.888 89.7814 280.883 89.7763L197.783 6.49605C197.783 6.49605 197.778 6.49097 197.773 6.49097C197.347 6.06397 196.845 5.75389 196.317 5.50989C196.251 5.47939 196.2 5.42855 196.134 5.40314C196.023 5.35739 195.901 5.35739 195.789 5.3218C195.368 5.18455 194.947 5.09814 194.506 5.07272C194.399 5.06764 194.303 5.01172 194.197 5.01172H76.4237C67.4396 5.01172 60.1346 12.3978 60.1346 21.4766V88.2971H44.6419C25.8265 88.2971 10.5215 103.633 10.5215 122.488V363.56V380.848C10.5215 399.616 25.8265 414.891 44.6419 414.891ZM352.37 287.513C355.439 287.513 357.94 290.014 357.94 293.089C357.94 296.246 355.444 298.813 352.37 298.813C349.296 298.813 346.8 296.246 346.8 293.089C346.805 290.014 349.301 287.513 352.37 287.513ZM385.304 217.19C388.373 217.19 390.869 219.691 390.869 222.772C390.869 225.852 388.373 228.353 385.304 228.353C382.234 228.353 379.733 225.852 379.733 222.772C379.733 219.691 382.234 217.19 385.304 217.19ZM352.37 144.564C355.439 144.564 357.94 147.065 357.94 150.146C357.94 153.226 355.444 155.727 352.37 155.727C349.296 155.727 346.8 153.226 346.8 150.146C346.8 147.065 349.301 144.564 352.37 144.564ZM199.264 82.1361V22.3561L265.06 88.2869H205.555C202.085 88.292 199.264 85.5266 199.264 82.1361ZM70.2804 21.4716C70.2804 18.0556 73.0959 15.1733 76.4237 15.1733H189.119V82.1361C189.119 91.1386 196.49 98.4586 205.555 98.4586H272.238V285.744C272.238 289.16 269.362 292.042 265.953 292.042H76.4288C73.0959 292.042 70.2855 289.16 70.2855 285.744L70.2804 21.4716ZM306.46 472.734H180.571V414.891H199.036C204.393 434.833 222.458 448.899 243.521 448.899C264.436 448.899 282.501 434.833 287.974 414.891H306.465L306.46 472.734ZM209.669 414.891H277.321C272.233 429.007 258.866 438.732 243.515 438.732C228.048 438.732 214.661 429.002 209.669 414.891ZM466.222 368.638V380.843C466.222 394.009 455.533 404.724 442.389 404.724H311.533H283.926H203.11H175.498H44.6419C31.4219 404.724 20.6673 394.014 20.6673 380.843V368.638H466.222Z" fill="#196D98" stroke="#196D98" stroke-width="2"></path><path d="M111.797 237.367H126.173H156.514H185.851H216.192H230.569C233.369 237.367 235.642 235.09 235.642 232.284C235.642 229.478 233.369 227.2 230.569 227.2H221.265V142.365C221.265 139.559 218.992 137.281 216.192 137.281H185.851C183.051 137.281 180.778 139.559 180.778 142.365V227.195H161.587V172.915C161.587 170.109 159.315 167.832 156.514 167.832H126.173C123.373 167.832 121.1 170.109 121.1 172.915V227.2H111.797C108.996 227.2 106.724 229.478 106.724 232.284C106.724 235.09 108.996 237.367 111.797 237.367ZM190.924 147.448H211.119V227.195H190.924V147.448ZM131.251 177.999H151.446V227.2H131.251V177.999Z" fill="#196D98" stroke="#196D98" stroke-width="2"></path></svg> 