<?xml version="1.0" encoding="UTF-8"?> <svg xmlns="http://www.w3.org/2000/svg" width="512" height="512" viewBox="0 0 512 512" fill="none"><path d="M405.034 385.909C404.863 385.315 405.695 379.529 397.889 372.774C375.507 335.032 361.071 293.43 355.359 250.189H466.326C484.311 250.189 498.94 235.561 498.94 217.575V117.032C498.94 99.051 484.312 84.423 466.326 84.423H306.338C288.169 67.614 266.389 55.982 242.779 50.313C247.808 28.362 230.898 8.04297 209.043 8.04297C187.15 8.04297 170.249 28.424 175.324 50.362C112.444 65.572 65.5875 122.289 65.5875 189.776V207.609C65.5875 265.863 50.0015 322.623 20.4315 372.57C16.3165 376.065 13.1805 380.363 13.0605 385.803C13.5465 386.027 7.95155 431.128 209.042 431.128C306.438 431.128 405.034 415.598 405.034 385.909ZM489.215 117.032V217.575C489.215 230.195 478.945 240.465 466.325 240.465H337.195C335.851 240.465 334.565 241.025 333.644 242.008L301.852 275.999L292.935 244.022C292.351 241.919 290.438 240.466 288.254 240.466H270.463C257.843 240.466 247.578 230.196 247.578 217.576V117.032C247.578 104.412 257.843 94.147 270.463 94.147H466.326C478.945 94.147 489.215 104.412 489.215 117.032ZM209.043 17.767C225.062 17.767 237.108 32.893 233.217 48.381C217.387 45.707 201.517 45.559 184.853 48.402C181.019 33.131 192.806 17.767 209.043 17.767ZM75.3115 207.609V189.776C75.3115 116.036 135.302 56.045 209.043 56.045C239.228 56.045 267.795 66.11 291.19 84.424H270.463C252.482 84.424 237.854 99.052 237.854 117.033V217.576C237.854 235.561 252.482 250.19 270.463 250.19H284.56L294.811 286.949C295.281 288.644 296.629 289.95 298.339 290.368C300.137 290.795 301.895 290.193 303.044 288.963L339.304 250.191H345.532C350.621 289.727 362.832 327.943 381.503 363.274C311.413 333.689 109.145 332.758 36.7175 363.221C61.9935 315.351 75.3115 262.133 75.3115 207.609ZM256.583 351.74C253.692 375.609 233.653 393.676 209.043 393.676C184.433 393.676 164.399 375.609 161.508 351.74C193.925 349.966 226.089 350.071 256.583 351.74ZM22.7755 385.909C22.7755 375.367 62.8795 358.176 151.81 352.275C154.994 381.316 179.212 403.4 209.043 403.4C238.874 403.4 263.097 381.316 266.281 352.275C355.205 358.176 395.31 375.367 395.31 385.909C395.31 400.732 324.447 421.405 209.043 421.405C93.6385 421.405 22.7755 400.732 22.7755 385.909Z" fill="#196D98" stroke="#196D98" stroke-width="5"></path><path d="M209.043 470.031C206.356 470.031 204.181 472.206 204.181 474.893V499.093C204.181 501.78 206.356 503.955 209.043 503.955C211.73 503.955 213.905 501.78 213.905 499.093V474.893C213.905 472.206 211.73 470.031 209.043 470.031Z" fill="#196D98" stroke="#196D98" stroke-width="5"></path><path d="M145.98 443.909C144.081 442.01 141.004 442.01 139.105 443.909L121.989 461.021C120.09 462.92 120.09 465.997 121.989 467.896C123.888 469.795 126.965 469.795 128.864 467.896L145.98 450.784C147.88 448.885 147.88 445.808 145.98 443.909Z" fill="#196D98" stroke="#196D98" stroke-width="5"></path><path d="M272.11 443.909C270.211 445.808 270.211 448.885 272.11 450.784L289.222 467.896C291.121 469.795 294.198 469.795 296.097 467.896C297.996 465.997 297.996 462.92 296.097 461.021L278.985 443.909C277.086 442.01 274.009 442.01 272.11 443.909Z" fill="#196D98" stroke="#196D98" stroke-width="5"></path><path d="M368.394 194.437C376.556 194.437 383.379 188.06 383.929 179.918L387.775 122.577C388.521 111.376 379.628 101.852 368.394 101.852C357.169 101.852 348.266 111.367 349.013 122.577L352.859 179.918C353.409 188.061 360.232 194.437 368.394 194.437ZM368.394 111.576C374.01 111.576 378.454 116.315 378.07 121.922L374.224 179.263C374.02 182.321 371.456 184.714 368.394 184.714C365.332 184.714 362.768 182.321 362.564 179.263L358.718 121.922C358.334 116.318 362.774 111.576 368.394 111.576Z" fill="#196D98" stroke="#196D98" stroke-width="5"></path><path d="M368.394 198.895C358.813 198.895 351.021 206.691 351.021 216.273C351.021 225.855 358.812 233.646 368.394 233.646C377.976 233.646 385.772 225.855 385.772 216.273C385.772 206.691 377.975 198.895 368.394 198.895ZM368.394 223.922C364.178 223.922 360.745 220.489 360.745 216.273C360.745 212.052 364.178 208.619 368.394 208.619C372.615 208.619 376.048 212.052 376.048 216.273C376.047 220.489 372.615 223.922 368.394 223.922Z" fill="#196D98" stroke="#196D98" stroke-width="5"></path></svg> 