<?xml version="1.0" encoding="UTF-8"?> <svg xmlns="http://www.w3.org/2000/svg" width="512" height="512" viewBox="0 0 512 512" fill="none"><path d="M256 88C269.232 88 280 77.232 280 64C280 50.768 269.232 40 256 40C242.768 40 232 50.768 232 64C232 77.232 242.768 88 256 88ZM256 56C260.408 56 264 59.584 264 64C264 68.416 260.408 72 256 72C251.592 72 248 68.416 248 64C248 59.584 251.592 56 256 56Z" fill="#196D98"></path><path d="M280 168H264V120H280V104H232V120H248V168H232V184H280V168Z" fill="#196D98"></path><path d="M330.888 184.001C348.88 165.297 360 139.945 360 112.001C360 83.5045 348.696 56.9045 328.176 37.1285C307.664 17.3525 280.68 7.05651 252.112 8.07251C216.432 9.37651 185.128 29.3765 167.4 58.2485C159.584 56.8805 151.736 56.0005 144 56.0005C69.008 56.0005 8 117.009 8 192.001C8 255.953 52.424 309.593 112 324.041V350.241C107.128 354.633 104 360.937 104 368.001V464.001C104 486.057 121.944 504.001 144 504.001C166.056 504.001 184 486.057 184 464.001V368.001C184 360.937 180.872 354.641 176 350.241V324.065C190.32 320.609 203.808 314.969 216 307.353V504.001H504V184.001H330.888ZM252.704 24.0565C276.8 23.2325 299.72 31.9125 317.072 48.6405C334.44 65.3845 344 87.8805 344 112.001C344 160.521 304.52 200.001 256 200.001L159.064 216.001H155.312C153.488 216.001 152 214.513 152 212.689C152 211.817 152.352 210.961 152.968 210.345L191.328 171.993L186.928 166.409C174.536 150.697 167.992 131.865 168 111.953C168.024 65.1925 206.024 25.7685 252.704 24.0565ZM264 280.001V255.969C268.032 248.393 271.384 240.385 273.944 232.001H456V280.001H264ZM170.128 170.561L141.656 199.025C138.064 202.617 136 207.593 136 212.689C136 223.337 144.664 232.001 155.312 232.001H159.064C160.128 232.001 161.184 231.905 162.24 231.737L227.032 220.945C214.896 255.753 181.728 280.001 144 280.001C95.48 280.001 56 240.521 56 192.001C56 143.481 95.48 104.001 144 104.001C146.752 104.001 149.536 104.177 152.384 104.465C152.2 106.945 152 109.417 152 111.937C151.992 133.105 158.232 153.225 170.128 170.561ZM24 192.001C24 125.833 77.832 72.0005 144 72.0005C149.192 72.0005 154.448 72.4805 159.712 73.1845C157.664 78.1685 156.072 83.3605 154.816 88.6645C151.16 88.2645 147.552 88.0005 144 88.0005C86.656 88.0005 40 134.657 40 192.001C40 249.345 86.656 296.001 144 296.001C191.48 296.001 232.864 263.505 244.6 218.009L256.672 216.001C258.312 215.993 259.912 215.809 261.528 215.721C250.44 271.257 201.6 312.001 144 312.001C77.832 312.001 24 258.169 24 192.001ZM168 464.001C168 477.233 157.232 488.001 144 488.001C130.768 488.001 120 477.233 120 464.001V368.001C120 363.585 123.592 360.001 128 360.001H160C164.408 360.001 168 363.585 168 368.001V464.001ZM160 344.001H128V326.977C133.256 327.593 138.576 328.001 144 328.001C149.416 328.001 154.736 327.577 160 326.953V344.001ZM488 488.001H232V295.577C237.776 290.665 243.112 285.273 248 279.465V296.001H352V344.001H288V392.001H248V472.001H344V392.001H304V360.001H424V392.809C405.768 396.529 392 412.681 392 432.001C392 454.057 409.944 472.001 432 472.001C454.056 472.001 472 454.057 472 432.001C472 412.689 458.232 396.529 440 392.809V344.001H368V296.001H472V216.001H277.68C277.824 215.209 277.936 214.417 278.064 213.617C290 211.025 301.128 206.313 311.16 200.001H488V488.001ZM328 408.001V456.001H264V408.001H328ZM432 408.001C445.232 408.001 456 418.769 456 432.001C456 445.233 445.232 456.001 432 456.001C418.768 456.001 408 445.233 408 432.001C408 418.769 418.768 408.001 432 408.001Z" fill="#196D98"></path><path d="M72 184H88V200H72V184Z" fill="#196D98"></path><path d="M104 184H120V200H104V184Z" fill="#196D98"></path><path d="M328 112H312C312 129.088 304.344 145.024 291 155.72L301.008 168.208C318.16 154.456 328 133.968 328 112Z" fill="#196D98"></path></svg> 