<?xml version="1.0" encoding="UTF-8"?> <svg xmlns="http://www.w3.org/2000/svg" width="512" height="512" viewBox="0 0 512 512" fill="none"><g clip-path="url(#clip0_288_198)"><path d="M506.7 121.801C510.4 121.001 513 117.701 513 114.001V85.0008C513 81.3008 510.4 78.0008 506.7 77.2008L488.4 73.1008C487.4 70.4008 486.3 67.7008 485.1 65.1008L495.1 49.3008C497.1 46.1008 496.7 42.0008 494 39.3008L473.5 18.8008C470.8 16.1008 466.7 15.7008 463.5 17.7008L447.7 27.7008C445.1 26.4008 442.4 25.3008 439.7 24.4008L435.6 6.10078C434.8 2.40078 431.5 -0.199219 427.8 -0.199219H398.8C395.1 -0.199219 391.8 2.40078 391 6.10078L386.9 24.4008C384.2 25.4008 381.5 26.5008 378.9 27.7008L363.1 17.7008C359.9 15.7008 355.8 16.1008 353.1 18.8008L332.6 39.3008C329.9 42.0008 329.5 46.1008 331.5 49.3008L341.5 65.1008C340.2 67.7008 339.1 70.4008 338.2 73.1008L319.9 77.2008C316.5 78.0008 314 80.8008 313.7 84.3008H121.6C117.2 84.3008 113.6 87.9008 113.6 92.3008V139.001H45.9C36.4 139.001 28.6 146.701 28.6 156.301V174.501H16.3C6.8 174.501 -1 182.201 -1 191.801V425.801C-1 435.301 6.7 443.101 16.3 443.101H113.5V471.901C113.5 476.301 117.1 479.901 121.5 479.901H309.1V484.801C309.1 499.901 321.4 512.101 336.4 512.101H485.5C500.6 512.101 512.8 499.801 512.8 484.801V459.001C512.8 443.901 500.5 431.701 485.5 431.701H421.3V422.801H485.5C500.6 422.801 512.8 410.501 512.8 395.501V369.701C512.8 354.601 500.5 342.401 485.5 342.401H421.3V333.501H485.5C500.6 333.501 512.8 321.201 512.8 306.201V280.401C512.8 265.301 500.5 253.101 485.5 253.101H421.3V199.101H427.8C431.5 199.101 434.8 196.501 435.6 192.801L439.7 174.501C442.4 173.501 445.1 172.401 447.7 171.201L463.5 181.201C466.7 183.201 470.8 182.801 473.5 180.101L494 159.601C496.7 156.901 497.1 152.801 495.1 149.601L485.1 133.801C486.4 131.201 487.5 128.501 488.4 125.801L506.7 121.801ZM44.7 156.301C44.7 155.601 45.3 155.001 46 155.001H225C225.7 155.001 226.3 155.601 226.3 156.301V390.301C226.3 391.001 225.7 391.601 225 391.601H212.7V247.301C212.7 245.201 211.9 243.101 210.4 241.601L145.6 176.801C144.1 175.301 142.1 174.501 139.9 174.501H44.7V156.301ZM147.8 201.801L185.3 239.301H147.8V201.801ZM15.1 425.701V191.701C15.1 191.001 15.7 190.401 16.4 190.401H131.9V247.201C131.9 251.601 135.5 255.201 139.9 255.201H196.7V425.601C196.7 426.301 196.1 426.901 195.4 426.901H16.4C15.7 427.001 15.1 426.401 15.1 425.701ZM496.9 458.901V484.701C496.9 490.901 491.8 496.001 485.6 496.001H336.5C330.3 496.001 325.2 490.901 325.2 484.701V458.901C325.2 452.701 330.3 447.601 336.5 447.601H485.6C491.8 447.601 496.9 452.701 496.9 458.901ZM496.9 369.601V395.401C496.9 401.601 491.8 406.701 485.6 406.701H336.5C330.3 406.701 325.2 401.601 325.2 395.401V369.601C325.2 363.401 330.3 358.301 336.5 358.301H485.6C491.8 358.301 496.9 363.401 496.9 369.601ZM496.9 280.301V306.101C496.9 312.301 491.8 317.401 485.6 317.401H336.5C330.3 317.401 325.2 312.301 325.2 306.101V280.301C325.2 274.101 330.3 269.001 336.5 269.001H485.6C491.8 269.001 496.9 274.101 496.9 280.301ZM405.4 253.001H336.5C321.4 253.001 309.2 265.301 309.2 280.301V306.101C309.2 321.201 321.5 333.401 336.5 333.401H405.4V342.301H336.5C321.4 342.301 309.2 354.601 309.2 369.601V395.401C309.2 410.501 321.5 422.701 336.5 422.701H405.4V431.601H336.5C321.4 431.601 309.2 443.901 309.2 458.901V463.801H129.6V443.001H195.4C204.9 443.001 212.7 435.301 212.7 425.701V407.501H225C234.5 407.501 242.3 399.801 242.3 390.201V156.201C242.3 146.701 234.6 138.901 225 138.901H129.6V100.201H313.9V114.001C313.9 117.701 316.5 121.001 320.2 121.801L338.5 125.901C339.5 128.601 340.6 131.301 341.8 133.901L331.8 149.701C329.8 152.901 330.2 157.001 332.9 159.701L353.4 180.201C356.1 182.901 360.2 183.301 363.4 181.301L379.2 171.301C381.8 172.601 384.5 173.701 387.2 174.601L391.3 192.901C392.1 196.601 395.4 199.201 399.1 199.201H405.6V253.001H405.4ZM480.4 111.201C477.5 111.801 475.2 114.001 474.4 116.801C473.1 121.501 471.2 126.001 468.8 130.301C467.4 132.901 467.5 136.001 469 138.501L478.1 152.801L466.7 164.201L452.4 155.101C449.9 153.501 446.8 153.401 444.2 154.901C439.9 157.301 435.4 159.201 430.7 160.501C427.9 161.301 425.7 163.601 425.1 166.501L421.4 183.001H405.3L401.6 166.501C401 163.601 398.8 161.301 396 160.501C391.3 159.201 386.8 157.301 382.5 154.901C379.9 153.501 376.8 153.601 374.3 155.101L360 164.201L348.6 152.801L357.7 138.501C359.3 136.001 359.4 132.901 357.9 130.301C355.5 126.001 353.6 121.501 352.3 116.801C351.5 114.001 349.2 111.801 346.3 111.201L329.8 107.501V91.4008L346.3 87.7008C349.2 87.1008 351.5 84.9008 352.3 82.1008C353.6 77.4008 355.5 72.9008 357.9 68.6008C359.3 66.0008 359.2 62.9008 357.7 60.4008L348.6 46.1008L360 34.7008L374.3 43.8008C376.8 45.4008 379.9 45.5008 382.5 44.0008C386.8 41.6008 391.3 39.7008 396 38.4008C398.8 37.6008 401 35.3008 401.6 32.4008L405.3 15.9008H421.4L425.1 32.4008C425.7 35.3008 427.9 37.6008 430.7 38.4008C435.4 39.7008 439.9 41.6008 444.2 44.0008C446.8 45.4008 449.9 45.3008 452.4 43.8008L466.7 34.7008L478.1 46.1008L469 60.4008C467.4 62.9008 467.3 66.0008 468.8 68.6008C471.2 72.9008 473.1 77.4008 474.4 82.1008C475.2 84.9008 477.5 87.1008 480.4 87.7008L496.9 91.4008V107.501L480.4 111.201ZM413.4 46.3008C384.1 46.3008 360.2 70.2008 360.2 99.5008C360.2 128.801 384.1 152.701 413.4 152.701C442.7 152.701 466.6 128.801 466.6 99.5008C466.6 70.2008 442.8 46.3008 413.4 46.3008ZM413.4 136.701C392.9 136.701 376.2 120.001 376.2 99.5008C376.2 79.0008 392.9 62.3008 413.4 62.3008C433.9 62.3008 450.6 79.0008 450.6 99.5008C450.6 120.001 433.9 136.701 413.4 136.701ZM339.6 471.801C339.6 467.401 343.2 463.801 347.6 463.801C352 463.801 355.6 467.401 355.6 471.801C355.6 476.201 352 479.801 347.6 479.801C343.2 479.801 339.6 476.201 339.6 471.801ZM371.3 471.801C371.3 467.401 374.9 463.801 379.3 463.801C383.7 463.801 387.3 467.401 387.3 471.801C387.3 476.201 383.7 479.801 379.3 479.801C374.9 479.801 371.3 476.201 371.3 471.801ZM403 471.801C403 467.401 406.6 463.801 411 463.801C415.4 463.801 419 467.401 419 471.801C419 476.201 415.4 479.801 411 479.801C406.6 479.801 403 476.201 403 471.801ZM434.8 471.801C434.8 467.401 438.4 463.801 442.8 463.801H442.9C447.3 463.801 450.9 467.401 450.9 471.801C450.9 476.201 447.3 479.801 442.9 479.801C438.5 479.801 434.8 476.201 434.8 471.801ZM466.5 471.801C466.5 467.401 470.1 463.801 474.5 463.801H474.6C479 463.801 482.6 467.401 482.6 471.801C482.6 476.201 479 479.801 474.6 479.801C470.2 479.801 466.5 476.201 466.5 471.801ZM339.6 382.501C339.6 378.101 343.2 374.501 347.6 374.501C352 374.501 355.6 378.101 355.6 382.501C355.6 386.901 352 390.501 347.6 390.501C343.2 390.501 339.6 386.901 339.6 382.501ZM371.3 382.501C371.3 378.101 374.9 374.501 379.3 374.501C383.7 374.501 387.3 378.101 387.3 382.501C387.3 386.901 383.7 390.501 379.3 390.501C374.9 390.501 371.3 386.901 371.3 382.501ZM403 382.501C403 378.101 406.6 374.501 411 374.501C415.4 374.501 419 378.101 419 382.501C419 386.901 415.4 390.501 411 390.501C406.6 390.501 403 386.901 403 382.501ZM434.8 382.501C434.8 378.101 438.4 374.501 442.8 374.501H442.9C447.3 374.501 450.9 378.101 450.9 382.501C450.9 386.901 447.3 390.501 442.9 390.501C438.5 390.501 434.8 386.901 434.8 382.501ZM466.5 382.501C466.5 378.101 470.1 374.501 474.5 374.501H474.6C479 374.501 482.6 378.101 482.6 382.501C482.6 386.901 479 390.501 474.6 390.501C470.2 390.501 466.5 386.901 466.5 382.501ZM355.6 293.201C355.6 297.601 352 301.201 347.6 301.201C343.2 301.201 339.6 297.601 339.6 293.201C339.6 288.801 343.2 285.201 347.6 285.201C352 285.201 355.6 288.801 355.6 293.201ZM387.3 293.201C387.3 297.601 383.7 301.201 379.3 301.201C374.9 301.201 371.3 297.601 371.3 293.201C371.3 288.801 374.9 285.201 379.3 285.201C383.7 285.201 387.3 288.801 387.3 293.201ZM411.1 285.201C415.5 285.201 419.1 288.801 419.1 293.201C419.1 297.601 415.5 301.201 411.1 301.201C406.7 301.201 403.1 297.601 403.1 293.201C403.1 288.801 406.6 285.201 411.1 285.201ZM434.8 293.201C434.8 288.801 438.4 285.201 442.8 285.201H442.9C447.3 285.201 450.9 288.801 450.9 293.201C450.9 297.601 447.3 301.201 442.9 301.201C438.5 301.201 434.8 297.601 434.8 293.201ZM466.5 293.201C466.5 288.801 470.1 285.201 474.5 285.201H474.6C479 285.201 482.6 288.801 482.6 293.201C482.6 297.601 479 301.201 474.6 301.201C470.2 301.201 466.5 297.601 466.5 293.201Z" fill="#196D98"></path></g><defs><clipPath id="clip0_288_198"><rect width="512" height="512" fill="white"></rect></clipPath></defs></svg> 