<?xml version="1.0" encoding="UTF-8"?> <svg xmlns="http://www.w3.org/2000/svg" width="512" height="512" viewBox="0 0 512 512" fill="none"><path d="M103.6 320.379L104.582 320.573L104.775 319.591C112.875 278.504 154.633 247.991 217.02 238.38L218.009 238.228L217.855 237.238L216.013 225.389L215.86 224.403L214.873 224.555C146.898 235.017 100.436 269.43 91.0493 316.88L90.8552 317.861L91.8365 318.055L103.6 320.379ZM339.997 421.786V422.786H340.997H415.095H415.096C418.94 422.786 422.077 419.642 422.077 415.776V335.527C422.077 305.632 408.793 279.331 383.771 259.456L383.771 259.456C361.804 242.031 331.582 229.96 296.419 224.555L295.428 224.402L295.278 225.394L293.492 237.243L293.344 238.228L294.329 238.38C321.933 242.644 350.416 252.303 371.97 268.225C393.5 284.13 408.085 306.249 408.085 335.527V408.795H340.997H339.997V409.795V421.786Z" fill="#196D98" stroke="#196D98" stroke-width="2"></path><path d="M173.477 151.558C173.477 106.216 210.334 69.3328 255.646 69.3328C301.014 69.3328 337.843 106.216 337.843 151.558C337.843 196.899 300.959 233.783 255.646 233.783C210.334 233.783 173.477 196.899 173.477 151.558ZM159.487 151.558C159.487 204.608 202.653 247.746 255.646 247.746C308.695 247.746 351.861 204.608 351.861 151.558C351.861 98.5071 308.639 55.3418 255.646 55.3418C202.653 55.3418 159.487 98.5079 159.487 151.558Z" fill="#196D98" stroke="#196D98" stroke-width="2"></path><path d="M346.978 464.879H347.978V463.879V331.019C347.978 320.119 339.081 311.254 328.185 311.254H69.9779C59.0497 311.254 50.2119 320.122 50.2119 331.019V463.879V464.879H51.2119H63.1739H64.1739V463.879V331.019C64.1739 327.835 66.7818 325.244 69.9769 325.244H328.184C331.41 325.244 334.016 327.837 334.016 331.019V463.879V464.879H335.016H346.978Z" fill="#196D98" stroke="#196D98" stroke-width="2"></path><path d="M55.131 484.485V470.858H343.058V484.485C343.058 490.279 338.294 495.022 332.493 495.022H65.668C59.8712 495.022 55.131 490.283 55.131 484.485ZM65.668 509.012H332.493C346.028 509.012 357.021 497.991 357.021 484.484V463.876C357.021 460.011 353.883 456.867 350.04 456.867H48.149C44.3056 456.867 41.168 460.011 41.168 463.876V484.484C41.168 497.989 52.1304 509.012 65.668 509.012Z" fill="#196D98" stroke="#196D98" stroke-width="2"></path><path d="M34.2315 125.912H35.2315V124.912V121.567C35.2315 113.937 39.2088 108.11 45.1934 103.85C51.1997 99.5746 59.1719 96.9291 66.9252 95.7398L67.911 95.5885L67.7624 94.6023L65.9764 82.7533L65.8269 81.7615L64.8355 81.914C38.2197 86.007 21.2695 101.083 21.2695 121.567V124.912V125.912H22.2695H34.2315ZM121.588 124.912V125.912H122.588H134.55H134.551H135.551V124.912V121.567C135.551 101.082 118.571 86.0057 91.9273 81.9139L90.9362 81.7617L90.7867 82.7533L89.0007 94.6023L88.852 95.589L89.8384 95.7399C97.6198 96.9298 105.606 99.5754 111.619 103.851C117.61 108.111 121.588 113.937 121.588 121.567V124.912Z" fill="#196D98" stroke="#196D98" stroke-width="2"></path><path d="M57.3145 63.683C57.3145 52.0455 66.7887 42.573 78.3965 42.573C90.0324 42.573 99.5065 52.0735 99.5065 63.683C99.5065 75.2901 90.0069 84.765 78.3965 84.765C66.787 84.765 57.3145 75.3189 57.3145 63.683ZM43.3525 63.683C43.3525 83.0282 59.0491 98.756 78.3965 98.756C97.7133 98.756 113.469 83.0298 113.469 63.683C113.469 44.3379 97.7439 28.582 78.3965 28.582C59.0481 28.582 43.3525 44.3389 43.3525 63.683Z" fill="#196D98" stroke="#196D98" stroke-width="2"></path><path d="M17.0053 78.4233C17.0053 44.5621 44.5091 16.9763 78.3963 16.9763C112.255 16.9763 139.815 44.562 139.815 78.4233C139.815 112.284 112.285 139.842 78.3963 139.842C44.5085 139.842 17.0053 112.284 17.0053 78.4233ZM2.98633 78.4243C2.98633 119.994 36.8261 153.833 78.3963 153.833C119.994 153.833 153.834 120.023 153.834 78.4243C153.834 36.8258 119.966 2.98633 78.3963 2.98633C36.8255 2.98633 2.98633 36.8555 2.98633 78.4243Z" fill="#196D98" stroke="#196D98" stroke-width="2"></path><path d="M389.413 125.912H390.413V124.912V121.567C390.413 113.937 394.39 108.11 400.375 103.85C406.381 99.5746 414.354 96.9291 422.107 95.7398L423.093 95.5885L422.944 94.6023L421.158 82.7533L421.009 81.7615L420.017 81.914C393.401 86.007 376.451 101.083 376.451 121.567V124.912V125.912H377.451H389.413ZM476.769 124.912V125.912H477.769H489.731H489.732H490.732V124.912V121.567C490.732 101.082 473.753 86.0057 447.109 81.9139L446.118 81.7617L445.968 82.7533L444.182 94.6023L444.034 95.589L445.02 95.7399C452.801 96.9298 460.788 99.5754 466.801 103.851C472.792 108.111 476.769 113.937 476.769 121.567V124.912Z" fill="#196D98" stroke="#196D98" stroke-width="2"></path><path d="M412.495 63.683C412.495 52.0455 421.969 42.573 433.577 42.573C445.154 42.573 454.63 52.0718 454.63 63.683C454.63 75.2935 445.184 84.765 433.577 84.765C421.968 84.765 412.495 75.3189 412.495 63.683ZM398.533 63.683C398.533 83.0282 414.23 98.756 433.577 98.756C452.897 98.756 468.593 83.0277 468.593 63.683C468.593 44.34 452.927 28.582 433.577 28.582C414.229 28.582 398.533 44.3389 398.533 63.683Z" fill="#196D98" stroke="#196D98" stroke-width="2"></path><path d="M372.186 78.4233C372.186 44.5621 399.69 16.9763 433.577 16.9763C467.437 16.9763 494.996 44.562 494.996 78.4233C494.996 112.284 467.465 139.842 433.577 139.842C399.689 139.842 372.186 112.284 372.186 78.4233ZM358.167 78.4243C358.167 119.994 392.007 153.833 433.577 153.833C475.175 153.833 509.015 120.023 509.015 78.4243C509.015 36.8258 475.147 2.98633 433.577 2.98633C392.006 2.98633 358.167 36.8555 358.167 78.4243Z" fill="#196D98" stroke="#196D98" stroke-width="2"></path><path d="M383.655 239.822L383.653 239.823C380.583 242.134 379.914 246.5 382.264 249.613C383.486 251.251 385.298 252.191 387.187 252.364L387.202 252.395H387.826C389.272 252.395 390.761 251.967 392.051 251.007L392.053 251.005L437.776 216.791L437.777 216.791L437.787 216.783C439.498 215.467 440.558 213.42 440.558 211.199V171.826C440.558 167.963 437.453 164.816 433.577 164.816C429.708 164.816 426.567 167.957 426.567 171.826V207.694L383.655 239.822Z" fill="#196D98" stroke="#196D98" stroke-width="2"></path><path d="M124.119 252.395H125.119V252.322C126.875 252.068 128.536 251.147 129.68 249.613C132.02 246.514 131.433 242.14 128.287 239.82C128.286 239.819 128.285 239.818 128.284 239.817L85.3777 207.694V171.826C85.3777 167.96 82.2401 164.816 78.3967 164.816C74.5274 164.816 71.3867 167.957 71.3867 171.826V211.199C71.3867 213.424 72.45 215.475 74.2277 216.793C74.2283 216.793 74.2289 216.794 74.2295 216.794L119.891 251.005L119.894 251.007C121.184 251.967 122.674 252.395 124.119 252.395Z" fill="#196D98" stroke="#196D98" stroke-width="2"></path></svg> 