<?xml version="1.0" encoding="UTF-8"?> <svg xmlns="http://www.w3.org/2000/svg" width="273" height="273" viewBox="0 0 273 273" fill="none"><path d="M136.365 269.501C101.565 269.501 68.6648 256.101 43.6648 231.901C18.6648 207.701 4.16478 175.101 3.26478 140.301C1.06478 66.8008 58.9648 5.50078 132.465 3.30078C133.865 3.30078 135.165 3.30078 136.365 3.30078C171.165 3.30078 204.065 16.7008 229.065 40.9008C254.065 65.1008 268.565 97.7008 269.465 132.501C270.565 168.101 257.665 201.901 233.265 227.701C208.865 253.501 175.865 268.501 140.265 269.601C139.065 269.501 137.665 269.501 136.365 269.501Z" fill="white"></path><path d="M136.365 6.20001C206.265 6.20001 264.265 62.1 266.365 132.4C268.565 204.2 211.865 264.1 140.165 266.3C138.865 266.3 137.465 266.3 136.265 266.3C66.3647 266.3 8.36471 210.4 6.26471 140.1C4.06471 68.4 60.6647 8.50001 132.465 6.20001C133.865 6.20001 135.165 6.20001 136.365 6.20001ZM136.365 0C134.965 0 133.665 0 132.265 0C57.0647 2.2 -2.23529 65.1 0.0647079 140.3C1.16471 175.9 15.7647 209.2 41.4647 234.1C67.1647 259 100.765 272.7 136.165 272.7C137.565 272.7 138.865 272.7 140.265 272.7C176.665 271.6 210.465 256.5 235.465 229.9C260.465 203.3 273.665 168.7 272.565 132.3C271.465 96.7 256.865 63.4 231.165 38.5C205.665 13.6 171.965 0 136.365 0Z" fill="#4EA966"></path><path d="M132.564 6.19994C60.7643 8.39994 4.26431 68.3999 6.36431 140.1C8.46431 211.8 68.5643 268.4 140.264 266.3C212.064 264.1 268.564 204.1 266.464 132.4C264.364 60.7 204.164 4.19994 132.564 6.19994Z" fill="white"></path><path d="M6.36426 136.199C6.36426 137.499 6.36426 138.699 6.36426 140.099C8.56426 211.899 68.5643 268.399 140.264 266.299C210.564 264.299 266.464 206.199 266.464 136.299L6.36426 136.199Z" fill="#196D98"></path><path d="M247.665 71.1008C229.765 101.801 199.665 124.401 165.065 132.501C155.665 134.701 146.065 135.801 136.465 135.801C153.965 105.301 183.565 82.6008 217.665 74.1008C227.565 71.6008 237.765 70.3008 248.165 70.3008L247.665 71.1008Z" fill="#196D98"></path><path d="M25.0645 71.1008C42.9645 101.601 73.0645 124.301 107.664 132.501C117.064 134.701 126.664 135.801 136.264 135.801C118.764 105.301 89.1645 82.6008 55.0645 74.1008C45.1645 71.6008 34.7645 70.3008 24.5645 70.3008L25.0645 71.1008Z" fill="#196D98"></path><path d="M140.164 7.00076C156.664 38.3008 160.164 75.8008 148.864 109.601C145.764 118.701 141.664 127.501 136.564 135.701C119.864 104.901 116.064 67.7008 126.964 34.2008C130.064 24.4008 134.564 15.0008 139.864 6.30078L140.164 7.00076Z" fill="#196D98"></path><path d="M25.0645 200.399C42.9645 169.699 73.0645 147.099 107.664 138.999C117.064 136.799 126.664 135.699 136.264 135.699C118.764 166.199 89.1645 188.899 55.0645 197.399C45.1645 199.899 34.9645 201.199 24.5645 201.199L25.0645 200.399Z" fill="white"></path><path d="M247.764 200.399C229.864 169.899 199.764 147.199 165.164 138.999C155.764 136.799 146.164 135.699 136.564 135.699C154.064 166.199 183.664 188.899 217.764 197.399C227.664 199.899 238.064 201.199 248.264 201.199L247.764 200.399Z" fill="white"></path><path d="M132.765 264.501C116.265 233.201 112.765 195.701 124.065 161.901C127.165 152.801 131.265 144.001 136.365 135.801C153.065 166.601 156.865 203.801 145.965 237.301C142.865 247.101 138.365 256.501 133.065 265.201L132.765 264.501Z" fill="white"></path></svg> 