<?xml version="1.0" encoding="UTF-8"?> <svg xmlns="http://www.w3.org/2000/svg" width="770" height="770" viewBox="0 0 770 770" fill="none"><path d="M599.843 161.852H170.157C163.321 161.859 156.768 164.577 151.935 169.411C147.101 174.244 144.383 180.797 144.375 187.632V531.383C144.383 538.218 147.101 544.771 151.935 549.605C156.768 554.438 163.321 557.156 170.157 557.164H257.562C258.693 557.168 259.814 556.949 260.861 556.519C261.907 556.089 262.858 555.456 263.66 554.658C264.461 553.86 265.097 552.911 265.531 551.866C265.965 550.821 266.188 549.701 266.188 548.57C266.188 547.439 265.965 546.319 265.531 545.274C265.097 544.229 264.461 543.281 263.66 542.482C262.858 541.684 261.907 541.052 260.861 540.622C259.814 540.192 258.693 539.972 257.562 539.977H170.157C167.878 539.975 165.693 539.069 164.081 537.458C162.47 535.847 161.564 533.662 161.563 531.383V247.789H342.518C349.186 247.782 355.762 246.229 361.728 243.253L415.976 216.133C419.552 214.348 423.493 213.417 427.49 213.414H608.437V531.383C608.436 533.662 607.53 535.847 605.918 537.458C604.307 539.069 602.122 539.975 599.843 539.977H512.446C511.315 539.972 510.194 540.192 509.147 540.622C508.101 541.052 507.15 541.684 506.348 542.482C505.547 543.281 504.911 544.229 504.477 545.274C504.043 546.319 503.82 547.439 503.82 548.57C503.82 549.701 504.043 550.821 504.477 551.866C504.911 552.911 505.547 553.86 506.348 554.658C507.15 555.456 508.101 556.089 509.147 556.519C510.194 556.949 511.315 557.168 512.446 557.164H599.843C606.679 557.156 613.232 554.438 618.065 549.605C622.899 544.771 625.617 538.218 625.625 531.383V187.632C625.617 180.797 622.899 174.244 618.065 169.411C613.232 164.577 606.679 161.859 599.843 161.852ZM608.437 196.226H427.49C420.823 196.233 414.247 197.785 408.28 200.762L354.033 227.882C350.457 229.668 346.515 230.598 342.519 230.601H161.563V187.632C161.565 185.354 162.471 183.169 164.082 181.558C165.693 179.947 167.878 179.041 170.157 179.039H599.843C602.122 179.041 604.306 179.947 605.918 181.558C607.529 183.169 608.435 185.354 608.437 187.632V196.226Z" fill="#196D98"></path><path d="M187.512 196.227C185.254 196.259 183.1 197.179 181.515 198.787C179.93 200.396 179.042 202.563 179.042 204.821C179.042 207.079 179.931 209.246 181.516 210.854C183.101 212.462 185.255 213.382 187.513 213.414C189.77 213.381 191.924 212.462 193.509 210.853C195.094 209.245 195.983 207.078 195.982 204.82C195.982 202.562 195.094 200.395 193.509 198.787C191.924 197.179 189.77 196.259 187.512 196.227Z" fill="#196D98"></path><path d="M221.886 196.227C219.628 196.259 217.474 197.179 215.889 198.787C214.304 200.396 213.416 202.563 213.416 204.821C213.416 207.079 214.305 209.246 215.89 210.854C217.475 212.462 219.629 213.382 221.887 213.414C224.144 213.381 226.298 212.462 227.883 210.853C229.468 209.245 230.357 207.078 230.356 204.82C230.356 202.562 229.468 200.395 227.883 198.787C226.298 197.179 224.144 196.259 221.886 196.227Z" fill="#196D98"></path><path d="M256.262 196.227C254.005 196.259 251.85 197.179 250.265 198.787C248.68 200.395 247.792 202.563 247.792 204.82C247.792 207.078 248.68 209.246 250.265 210.854C251.85 212.462 254.005 213.382 256.262 213.414C258.52 213.382 260.674 212.462 262.259 210.854C263.844 209.246 264.732 207.078 264.732 204.82C264.732 202.563 263.844 200.395 262.259 198.787C260.674 197.179 258.52 196.259 256.262 196.227Z" fill="#196D98"></path><path d="M385 385.289C355.381 385.323 326.985 397.105 306.041 418.049C285.097 438.992 273.316 467.389 273.281 497.008C279.421 645.217 490.602 645.174 496.719 497.007C496.684 467.388 484.903 438.992 463.959 418.048C443.015 397.105 414.619 385.323 385 385.289ZM385 591.539C359.937 591.511 335.909 581.542 318.187 563.82C300.466 546.098 290.497 522.07 290.469 497.008C295.661 371.6 474.357 371.636 479.532 497.008C479.503 522.071 469.534 546.099 451.812 563.82C434.09 581.542 410.062 591.511 385 591.539Z" fill="#196D98"></path><path d="M427.59 461.794L365.781 513.927L343.03 490.613C341.427 489.034 339.269 488.146 337.018 488.14C334.768 488.134 332.606 489.011 330.995 490.582C329.384 492.154 328.454 494.294 328.404 496.544C328.353 498.793 329.187 500.973 330.727 502.614L359.059 531.651C360.575 533.205 362.623 534.128 364.792 534.234C366.96 534.34 369.089 533.621 370.749 532.222L438.669 474.936C440.362 473.452 441.405 471.364 441.575 469.119C441.745 466.874 441.027 464.652 439.576 462.931C438.125 461.209 436.057 460.126 433.815 459.913C431.574 459.701 429.339 460.376 427.59 461.794Z" fill="#196D98"></path></svg> 